<svg width="40" height="37" viewBox="0 0 40 37" fill="none" xmlns="http://www.w3.org/2000/svg">
<path d="M29.0937 16.6248H24.9609C24.9316 16.2829 24.8534 15.9727 24.7264 15.6942C24.6043 15.4158 24.4333 15.1764 24.2135 14.9761C23.9985 14.7709 23.7372 14.6146 23.4294 14.5071C23.1217 14.3948 22.7724 14.3386 22.3816 14.3386C21.6977 14.3386 21.1188 14.5047 20.6449 14.8369C20.176 15.1691 19.8194 15.6454 19.5751 16.2658C19.3357 16.8862 19.216 17.6312 19.216 18.5007C19.216 19.4191 19.3382 20.1885 19.5824 20.8089C19.8316 21.4244 20.1906 21.8885 20.6596 22.2011C21.1286 22.5089 21.6928 22.6628 22.3523 22.6628C22.7284 22.6628 23.0655 22.6164 23.3635 22.5235C23.6615 22.4258 23.9204 22.2866 24.1402 22.1059C24.36 21.9251 24.5383 21.7077 24.6751 21.4537C24.8168 21.1948 24.912 20.9041 24.9609 20.5817L29.0937 20.611C29.0448 21.2461 28.8665 21.8934 28.5587 22.5529C28.251 23.2075 27.8138 23.8132 27.2471 24.3701C26.6853 24.9221 25.9892 25.3667 25.1587 25.7037C24.3283 26.0408 23.3635 26.2093 22.2643 26.2093C20.8867 26.2093 19.6508 25.9138 18.5566 25.3227C17.4672 24.7316 16.605 23.8621 15.9699 22.7141C15.3397 21.5661 15.0247 20.1616 15.0247 18.5007C15.0247 16.83 15.3471 15.4231 15.9919 14.28C16.6367 13.132 17.5063 12.2649 18.6005 11.6787C19.6948 11.0876 20.9161 10.7921 22.2643 10.7921C23.212 10.7921 24.084 10.9215 24.8803 11.1804C25.6766 11.4393 26.3751 11.8179 26.976 12.3162C27.5768 12.8096 28.0605 13.4178 28.4268 14.1408C28.7932 14.8638 29.0155 15.6918 29.0937 16.6248Z" fill="#B9B9B9"/>
<path d="M40.0001 16.6248H35.8674C35.8381 16.2829 35.7599 15.9727 35.6329 15.6942C35.5108 15.4158 35.3398 15.1764 35.12 14.9761C34.905 14.7709 34.6437 14.6146 34.3359 14.5071C34.0281 14.3948 33.6789 14.3386 33.2881 14.3386C32.6041 14.3386 32.0253 14.5047 31.5514 14.8369C31.0824 15.1691 30.7258 15.6454 30.4816 16.2658C30.2422 16.8862 30.1225 17.6312 30.1225 18.5007C30.1225 19.4191 30.2447 20.1885 30.4889 20.8089C30.738 21.4244 31.0971 21.8885 31.5661 22.2011C32.035 22.5089 32.5993 22.6628 33.2587 22.6628C33.6349 22.6628 33.972 22.6164 34.27 22.5235C34.5679 22.4258 34.8269 22.2866 35.0467 22.1059C35.2665 21.9251 35.4448 21.7077 35.5816 21.4537C35.7233 21.1948 35.8185 20.9041 35.8674 20.5817L40.0001 20.611C39.9513 21.2461 39.773 21.8934 39.4652 22.5529C39.1575 23.2075 38.7203 23.8132 38.1536 24.3701C37.5918 24.9221 36.8957 25.3667 36.0652 25.7037C35.2348 26.0408 34.27 26.2093 33.1708 26.2093C31.7932 26.2093 30.5573 25.9138 29.463 25.3227C28.3737 24.7316 27.5115 23.8621 26.8764 22.7141C26.2462 21.5661 25.9311 20.1616 25.9311 18.5007C25.9311 16.83 26.2536 15.4231 26.8984 14.28C27.5432 13.132 28.4128 12.2649 29.507 11.6787C30.6013 11.0876 31.8225 10.7921 33.1708 10.7921C34.1185 10.7921 34.9905 10.9215 35.7868 11.1804C36.583 11.4393 37.2816 11.8179 37.8825 12.3162C38.4833 12.8096 38.9669 13.4178 39.3333 14.1408C39.6997 14.8638 39.922 15.6918 40.0001 16.6248Z" fill="#B9B9B9"/>
<g filter="url(#filter0_d_1120_12)">
<path d="M8 14.2211V10.8474H21.0295V14.2211H16.5204V26.2701H12.5091V14.2211H8Z" fill="#1E1E1E"/>
</g>
<defs>
<filter id="filter0_d_1120_12" x="0" y="0.847351" width="33.0295" height="35.4227" filterUnits="userSpaceOnUse" color-interpolation-filters="sRGB">
<feFlood flood-opacity="0" result="BackgroundImageFix"/>
<feColorMatrix in="SourceAlpha" type="matrix" values="0 0 0 0 0 0 0 0 0 0 0 0 0 0 0 0 0 0 127 0" result="hardAlpha"/>
<feOffset dx="2"/>
<feGaussianBlur stdDeviation="5"/>
<feComposite in2="hardAlpha" operator="out"/>
<feColorMatrix type="matrix" values="0 0 0 0 0 0 0 0 0 0 0 0 0 0 0 0 0 0 0.15 0"/>
<feBlend mode="normal" in2="BackgroundImageFix" result="effect1_dropShadow_1120_12"/>
<feBlend mode="normal" in="SourceGraphic" in2="effect1_dropShadow_1120_12" result="shape"/>
</filter>
</defs>
</svg>
