<svg width="56" height="44" viewBox="0 0 56 44" fill="none" xmlns="http://www.w3.org/2000/svg">
<path d="M39.6404 19.5412H33.4412C33.3973 19.0283 33.28 18.563 33.0895 18.1453C32.9063 17.7276 32.6498 17.3686 32.3201 17.0681C31.9977 16.7604 31.6056 16.5259 31.144 16.3647C30.6824 16.1962 30.1584 16.1119 29.5722 16.1119C28.5464 16.1119 27.6781 16.361 26.9673 16.8593C26.2638 17.3576 25.7289 18.072 25.3625 19.0026C25.0035 19.9332 24.824 21.0507 24.824 22.355C24.824 23.7326 25.0071 24.8867 25.3735 25.8173C25.7472 26.7406 26.2858 27.4367 26.9893 27.9057C27.6927 28.3673 28.539 28.5981 29.5283 28.5981C30.0925 28.5981 30.5981 28.5285 31.0451 28.3893C31.4921 28.2427 31.8804 28.0339 32.2102 27.7628C32.5399 27.4917 32.8074 27.1656 33.0125 26.7846C33.2251 26.3962 33.3679 25.9602 33.4412 25.4766L39.6404 25.5205C39.5671 26.4731 39.2996 27.444 38.838 28.4333C38.3764 29.4152 37.7205 30.3238 36.8705 31.1591C36.0279 31.9872 34.9837 32.654 33.738 33.1596C32.4923 33.6652 31.0451 33.918 29.3964 33.918C27.33 33.918 25.4761 33.4747 23.8347 32.588C22.2007 31.7014 20.9073 30.3971 19.9548 28.6751C19.0095 26.9531 18.5369 24.8464 18.5369 22.355C18.5369 19.849 19.0205 17.7386 19.9877 16.024C20.955 14.302 22.2593 13.0013 23.9007 12.122C25.5421 11.2354 27.374 10.7921 29.3964 10.7921C30.8179 10.7921 32.1259 10.9862 33.3203 11.3746C34.5147 11.763 35.5626 12.3309 36.4639 13.0783C37.3651 13.8184 38.0906 14.7306 38.6402 15.8151C39.1897 16.8996 39.5231 18.1416 39.6404 19.5412Z" fill="#B9B9B9"/>
<path d="M56.0001 19.5412H49.8009C49.757 19.0283 49.6397 18.563 49.4492 18.1453C49.266 17.7276 49.0096 17.3686 48.6798 17.0681C48.3574 16.7604 47.9654 16.5259 47.5037 16.3647C47.0421 16.1962 46.5182 16.1119 45.932 16.1119C44.9061 16.1119 44.0378 16.361 43.327 16.8593C42.6235 17.3576 42.0886 18.072 41.7223 19.0026C41.3632 19.9332 41.1837 21.0507 41.1837 22.355C41.1837 23.7326 41.3669 24.8867 41.7332 25.8173C42.107 26.7406 42.6455 27.4367 43.349 27.9057C44.0524 28.3673 44.8988 28.5981 45.888 28.5981C46.4522 28.5981 46.9578 28.5285 47.4048 28.3893C47.8518 28.2427 48.2402 28.0339 48.5699 27.7628C48.8996 27.4917 49.1671 27.1656 49.3723 26.7846C49.5848 26.3962 49.7277 25.9602 49.8009 25.4766L56.0001 25.5205C55.9268 26.4731 55.6594 27.444 55.1977 28.4333C54.7361 29.4152 54.0803 30.3238 53.2303 31.1591C52.3876 31.9872 51.3434 32.654 50.0977 33.1596C48.852 33.6652 47.4048 33.918 45.7561 33.918C43.6897 33.918 41.8358 33.4747 40.1944 32.588C38.5604 31.7014 37.2671 30.3971 36.3145 28.6751C35.3692 26.9531 34.8966 24.8464 34.8966 22.355C34.8966 19.849 35.3802 17.7386 36.3475 16.024C37.3147 14.302 38.619 13.0013 40.2604 12.122C41.9018 11.2354 43.7337 10.7921 45.7561 10.7921C47.1777 10.7921 48.4856 10.9862 49.68 11.3746C50.8744 11.763 51.9223 12.3309 52.8236 13.0783C53.7249 13.8184 54.4503 14.7306 54.9999 15.8151C55.5494 16.8996 55.8829 18.1416 56.0001 19.5412Z" fill="#B9B9B9"/>
<g filter="url(#filter0_d_1120_12)">
<path d="M8 15.9356V10.875H27.5443V15.9356H20.7807V34.0091H14.7636V15.9356H8Z" fill="#1E1E1E"/>
</g>
<defs>
<filter id="filter0_d_1120_12" x="0" y="0.875" width="39.5444" height="43.1341" filterUnits="userSpaceOnUse" color-interpolation-filters="sRGB">
<feFlood flood-opacity="0" result="BackgroundImageFix"/>
<feColorMatrix in="SourceAlpha" type="matrix" values="0 0 0 0 0 0 0 0 0 0 0 0 0 0 0 0 0 0 127 0" result="hardAlpha"/>
<feOffset dx="2"/>
<feGaussianBlur stdDeviation="5"/>
<feComposite in2="hardAlpha" operator="out"/>
<feColorMatrix type="matrix" values="0 0 0 0 0 0 0 0 0 0 0 0 0 0 0 0 0 0 0.15 0"/>
<feBlend mode="normal" in2="BackgroundImageFix" result="effect1_dropShadow_1120_12"/>
<feBlend mode="normal" in="SourceGraphic" in2="effect1_dropShadow_1120_12" result="shape"/>
</filter>
</defs>
</svg>
